<svg version="1.1" xmlns="http://www.w3.org/2000/svg" viewBox="0 0 357.07958938280126 236.10928265022767"
     width="714.1591787656025" height="472.21856530045534">
    <!-- svg-source:excalidraw -->

    <defs>
        <style class="style-fonts">

        </style>

    </defs>
    <g stroke-linecap="round">
        <g transform="translate(12.334137529926466 10.465960631147027) rotate(0 167.07046508789062 0)">
            <path d="M0.35 1.14 C55.89 0.94, 278.35 -0.38, 334.05 -0.47 M-0.92 0.7 C54.38 0.59, 277.23 1.17, 333.06 0.83"
                  stroke="#1e1e1e" stroke-width="2" fill="none"></path>
        </g>
    </g>
    <mask></mask>
    <g stroke-linecap="round">
        <g transform="translate(11.748968291897313 224.88036749437452) rotate(0 167.07046508789062 0)">
            <path d="M-0.19 1.19 C55.54 1.4, 279.58 0.69, 335.33 0.37 M-1.75 0.77 C53.85 0.68, 279.11 -1.46, 335.01 -1.56"
                  stroke="#1e1e1e" stroke-width="2" fill="none"></path>
        </g>
    </g>
    <mask></mask>
    <g stroke-linecap="round"
       transform="translate(101.95748958070772 51.20769036747515) rotate(0 77.26766967773438 61.328826904296875)">
        <path d="M154.54 61.33 C154.54 63.62, 154.37 65.92, 154.05 68.2 C153.73 70.47, 153.24 72.74, 152.6 74.98 C151.96 77.21, 151.15 79.42, 150.2 81.58 C149.25 83.74, 148.13 85.88, 146.88 87.94 C145.63 90, 144.23 92.02, 142.69 93.96 C141.16 95.9, 139.48 97.78, 137.68 99.57 C135.88 101.36, 133.94 103.08, 131.9 104.69 C129.87 106.31, 127.7 107.85, 125.44 109.28 C123.19 110.7, 120.82 112.04, 118.38 113.26 C115.93 114.48, 113.39 115.59, 110.79 116.58 C108.19 117.58, 105.51 118.46, 102.79 119.22 C100.07 119.97, 97.27 120.61, 94.46 121.12 C91.65 121.63, 88.78 122.02, 85.92 122.27 C83.05 122.53, 80.15 122.66, 77.27 122.66 C74.38 122.66, 71.48 122.53, 68.62 122.27 C65.75 122.02, 62.89 121.63, 60.07 121.12 C57.26 120.61, 54.47 119.97, 51.75 119.22 C49.03 118.46, 46.34 117.58, 43.74 116.58 C41.14 115.59, 38.6 114.48, 36.16 113.26 C33.72 112.04, 31.35 110.7, 29.09 109.28 C26.84 107.85, 24.67 106.31, 22.63 104.69 C20.59 103.08, 18.66 101.36, 16.86 99.57 C15.06 97.78, 13.38 95.9, 11.84 93.96 C10.31 92.02, 8.9 90, 7.65 87.94 C6.4 85.88, 5.29 83.74, 4.34 81.58 C3.38 79.42, 2.58 77.21, 1.94 74.98 C1.3 72.74, 0.81 70.47, 0.49 68.2 C0.16 65.92, 0 63.62, 0 61.33 C0 59.04, 0.16 56.74, 0.49 54.46 C0.81 52.19, 1.3 49.91, 1.94 47.68 C2.58 45.45, 3.38 43.23, 4.34 41.07 C5.29 38.91, 6.4 36.78, 7.65 34.72 C8.9 32.66, 10.31 30.64, 11.84 28.7 C13.38 26.76, 15.06 24.88, 16.86 23.09 C18.66 21.3, 20.59 19.58, 22.63 17.96 C24.67 16.34, 26.84 14.81, 29.09 13.38 C31.35 11.95, 33.72 10.62, 36.16 9.4 C38.6 8.18, 41.14 7.07, 43.74 6.07 C46.34 5.08, 49.03 4.2, 51.75 3.44 C54.47 2.69, 57.26 2.05, 60.07 1.54 C62.89 1.03, 65.75 0.64, 68.62 0.39 C71.48 0.13, 74.38 0, 77.27 0 C80.15 0, 83.05 0.13, 85.92 0.39 C88.78 0.64, 91.65 1.03, 94.46 1.54 C97.27 2.05, 100.07 2.69, 102.79 3.44 C105.51 4.2, 108.19 5.08, 110.79 6.07 C113.39 7.07, 115.93 8.18, 118.38 9.4 C120.82 10.62, 123.19 11.95, 125.44 13.38 C127.7 14.81, 129.87 16.34, 131.9 17.96 C133.94 19.58, 135.88 21.3, 137.68 23.09 C139.48 24.88, 141.16 26.76, 142.69 28.7 C144.23 30.64, 145.63 32.66, 146.88 34.72 C148.13 36.78, 149.25 38.91, 150.2 41.07 C151.15 43.23, 151.96 45.45, 152.6 47.68 C153.24 49.91, 153.73 52.19, 154.05 54.46 C154.37 56.74, 154.45 60.18, 154.54 61.33 C154.62 62.47, 154.62 60.18, 154.54 61.33"
              stroke="#1e1e1e" stroke-width="2" fill="none"></path>
    </g>
</svg>
